<svg width="151" height="151" viewBox="0 0 151 151" fill="none" xmlns="http://www.w3.org/2000/svg">
<path d="M146.689 69.9613C145.285 69.9613 139.949 71.9326 137.141 73.059C136.86 71.9326 135.736 71.0878 134.332 71.0878C132.928 71.0878 131.524 71.9326 131.524 73.059L126.188 72.2142C125.345 60.6685 120.852 50.5308 113.831 42.3643L116.92 37.8587C117.763 38.4219 119.448 38.4219 120.29 37.2955C121.413 36.1691 121.694 34.761 120.852 33.9162C123.66 32.7898 128.996 30.537 129.839 29.4106C130.962 28.0026 130.12 25.1866 128.154 22.9337C125.907 20.9625 123.099 20.1177 121.694 21.2441C120.571 22.0889 118.324 27.4394 117.201 30.2554C116.358 29.6922 114.673 29.9738 113.831 30.8186C112.707 31.945 112.427 33.353 113.269 34.1978L108.776 37.2955C100.631 30.2554 90.24 25.7498 79.0063 24.905L78.1638 19.5545C79.2872 19.2729 80.1297 18.1465 80.1297 16.7385C80.1297 15.3305 79.2872 14.2041 78.1638 13.9225C79.2872 11.1064 81.2531 5.75599 81.2531 4.34798C80.9722 2.37676 78.4447 0.96875 75.3554 0.96875C72.2661 0.96875 69.7386 2.37676 69.4577 4.34798C69.4577 5.75599 71.4236 11.1064 72.547 13.9225C71.4236 14.2041 70.5811 15.3305 70.5811 16.7385C70.5811 18.1465 71.4236 19.5545 72.547 19.5545L71.7045 24.905C60.1899 25.7498 50.0796 30.2554 41.9352 37.2955L37.4417 34.1978C38.0034 33.353 38.0034 31.6634 36.8801 30.8186C35.7567 29.6922 34.3525 29.4106 33.5099 30.2554C32.3866 27.4394 30.1398 22.3705 29.0165 21.2441C27.6123 20.1177 24.8038 20.9625 22.8379 23.2153C20.5912 25.1866 19.7487 28.0026 20.8721 29.6922C21.7146 30.8186 27.0506 33.0714 29.859 34.1978C29.2973 35.0426 29.5782 36.7323 30.4207 37.5771C31.5441 38.7035 32.9483 38.9851 33.7908 38.1403L36.8801 42.6459C29.859 50.8124 25.3655 61.2317 24.523 72.4958L19.187 73.3406C18.9062 72.2142 17.7828 71.3694 16.3786 71.3694C14.9744 71.3694 13.851 72.2142 13.5702 73.3406C10.7617 72.2142 5.42574 70.243 4.02153 70.243C2.05564 70.5246 0.651428 73.059 0.651428 76.1566C0.651428 79.2542 2.05564 81.7887 4.02153 82.0703C5.42574 82.0703 10.7617 80.099 13.5702 78.9726C13.851 80.099 14.9744 80.9438 16.3786 80.9438C17.7828 80.9438 19.187 80.099 19.187 78.9726L24.523 79.8174C25.3655 91.3631 29.859 101.501 36.8801 109.667L34.0716 113.891C33.2291 113.328 31.5441 113.328 30.7015 114.455C29.5782 115.581 29.2973 116.989 30.1398 117.834C27.3314 118.96 22.2763 121.213 21.1529 122.339C20.0295 123.747 20.8721 126.563 22.8379 128.816C25.0847 131.069 27.8931 131.914 29.2973 130.506C30.4207 129.661 32.6674 124.311 33.7908 121.495C34.6333 122.058 36.3184 121.776 37.1609 120.931C38.2843 119.805 38.5651 118.397 37.7226 117.552L42.216 114.455C50.3605 121.495 60.7516 126 71.9853 126.845L72.8278 132.195C71.7045 132.477 70.8619 133.604 70.8619 135.012C70.8619 136.42 71.7045 137.546 72.8278 137.828C71.7045 140.644 69.7386 145.994 69.7386 147.402C70.0194 149.373 72.547 150.781 75.6362 150.781C78.7255 150.781 81.2531 149.373 81.5339 147.402C81.5339 145.994 79.568 140.644 78.4447 137.828C79.568 137.546 80.4106 136.42 80.4106 135.012C80.4106 133.604 79.568 132.195 78.4447 132.195L79.2872 126.845C90.8017 126 100.912 121.495 109.056 114.455L113.55 117.552C112.988 118.397 112.988 120.087 114.112 120.931C115.235 122.058 116.639 122.339 117.482 121.495C118.605 124.311 120.852 129.661 121.975 130.506C123.379 131.632 126.188 130.787 128.435 128.816C130.681 126.563 131.524 123.747 130.12 122.339C129.277 121.213 123.941 118.96 121.133 117.834C121.694 116.989 121.413 115.299 120.571 114.455C119.448 113.328 118.043 113.047 117.201 113.891L114.112 109.386C121.133 101.219 125.626 90.7999 126.469 79.5358L131.805 78.691C132.085 79.8174 133.209 80.6622 134.613 80.6622C136.017 80.6622 137.141 79.8174 137.421 78.691C140.23 79.8174 145.566 81.7887 146.97 81.7887C148.936 81.5071 150.34 78.9726 150.34 75.875C149.779 73.059 148.374 70.243 146.689 69.9613ZM31.5441 77.8462C30.4207 77.8462 29.5782 77.0014 29.5782 75.875C29.5782 74.7486 30.4207 73.9038 31.5441 73.9038C32.6674 73.9038 33.5099 74.7486 33.5099 75.875C33.5099 77.0014 32.6674 77.8462 31.5441 77.8462ZM104.844 43.4907C105.686 42.6459 106.81 42.6459 107.652 43.4907C108.495 44.3355 108.495 45.4619 107.652 46.3067C106.81 47.1516 105.686 47.1516 104.844 46.3067C104.282 45.4619 104.282 44.3355 104.844 43.4907ZM75.3554 30.2554C76.4788 30.2554 77.3213 31.1002 77.3213 32.2266C77.3213 33.353 76.4788 34.1978 75.3554 34.1978C74.232 34.1978 73.3895 33.353 73.3895 32.2266C73.3895 31.1002 74.232 30.2554 75.3554 30.2554ZM43.0586 43.4907C43.9011 42.6459 45.0245 42.6459 45.867 43.4907C46.7095 44.3355 46.7095 45.4619 45.867 46.3067C45.0245 47.1516 43.9011 47.1516 43.0586 46.3067C42.4969 45.4619 42.4969 44.3355 43.0586 43.4907ZM48.1137 51.6572L50.3605 53.91C50.9221 54.4732 51.4838 54.4732 52.0455 54.1916L55.1348 57.2892C54.2923 59.2605 55.1348 62.3581 57.6624 64.8925C60.4708 67.7085 64.4026 68.5533 66.0876 66.8637C63.8409 69.1165 62.4367 72.2142 62.4367 75.5934V74.7486H51.4838C51.203 74.7486 50.9221 74.467 50.9221 73.9038C50.9221 73.3406 51.203 73.059 51.4838 73.059H62.9984V72.7774C62.9984 71.9326 62.1558 71.0878 61.3133 71.0878H50.3605C49.7988 71.0878 48.3946 72.7774 47.552 74.1854H44.1819C43.9011 73.6222 43.3394 73.059 42.7777 73.059H39.1268C39.6885 65.1741 42.7777 57.5708 48.1137 51.6572ZM45.867 108.259C45.0245 109.104 43.9011 109.104 43.0586 108.259C42.216 107.414 42.216 106.288 43.0586 105.443C43.9011 104.598 45.0245 104.598 45.867 105.443C46.7095 106.288 46.7095 107.414 45.867 108.259ZM48.1137 100.093C42.7777 94.1792 39.4076 86.2943 38.8459 77.8462H42.4969C43.0586 77.8462 43.9011 77.283 43.9011 76.7198H46.9904C47.8329 78.1278 49.2371 80.099 49.7988 80.099H60.7516C61.5941 80.099 62.4367 79.5358 62.4367 78.691V78.1278H51.4838C51.203 78.1278 50.9221 77.8462 50.9221 77.283C50.9221 76.7198 51.203 76.4382 51.4838 76.4382H62.9984V75.5934C62.9984 78.9726 64.4026 82.0703 66.6493 84.3231C64.9642 82.6335 61.0325 83.4783 58.224 86.2943C55.6965 88.8287 54.8539 91.9263 55.6965 93.8976L52.6072 96.9952C52.0455 96.7136 51.203 96.7136 50.9221 97.2768L48.1137 100.093ZM75.3554 121.776C74.232 121.776 73.3895 120.931 73.3895 119.805C73.3895 118.679 74.232 117.834 75.3554 117.834C76.4788 117.834 77.3213 118.679 77.3213 119.805C77.3213 120.931 76.4788 121.776 75.3554 121.776ZM107.652 108.259C106.81 109.104 105.686 109.104 104.844 108.259C104.001 107.414 104.001 106.288 104.844 105.443C105.686 104.598 106.81 104.598 107.652 105.443C108.495 106.288 108.495 107.414 107.652 108.259ZM102.597 100.093L100.35 97.84C99.7887 97.2768 99.227 97.2768 98.6653 97.5584L95.576 94.4608C96.4186 92.4895 95.576 89.3919 93.0484 86.8575C90.24 84.0415 86.3082 83.1967 84.6232 84.8863C82.9381 86.5759 83.7807 90.5183 86.5891 93.3344C89.1167 95.8688 92.2059 96.7136 94.1718 95.8688L97.2611 98.9664C96.9802 99.5296 96.9802 100.374 97.5419 100.656L99.7887 102.909C93.891 108.259 86.3082 111.639 77.883 112.202V108.541C77.883 107.978 77.3213 107.133 76.7596 107.133V103.754C77.883 102.909 79.8489 101.501 79.8489 100.938V89.9551C79.8489 89.1103 79.0064 88.2655 78.1638 88.2655H77.883V99.8112C77.883 100.093 77.6021 100.374 77.0405 100.374C76.4788 100.374 76.1979 100.093 76.1979 99.8112V88.5471H75.3554H74.5129V99.8112C74.5129 100.093 74.232 100.374 73.6703 100.374C73.1087 100.374 72.8278 100.093 72.8278 99.8112V88.5471H72.2661C71.4236 88.5471 70.8619 89.3919 70.8619 90.2367V101.219C70.8619 101.782 72.8278 103.19 74.232 104.035V107.133C73.6704 107.414 73.1087 107.978 73.1087 108.541V112.202C64.6834 111.639 56.8198 108.259 50.9221 102.909L53.1689 100.656C53.7306 100.093 53.7306 99.5296 53.4497 98.9664L56.539 95.8688C58.5049 96.7136 61.5942 95.8688 64.1217 93.3344C66.9301 90.5183 67.7727 86.5759 66.0876 84.8863C68.3344 87.1391 71.4236 88.5471 74.7937 88.5471C81.8148 88.5471 87.1508 82.9151 87.1508 76.1566C87.1508 69.1165 81.5339 63.7661 74.7937 63.7661C71.4236 63.7661 68.3344 65.1741 66.0876 67.4269C67.7727 65.7373 66.9301 61.7949 64.1217 58.9789C61.5942 56.4444 58.5049 55.5996 56.539 56.4444L53.4497 53.3468C53.7306 52.7836 53.7306 51.9388 53.1689 51.6572L50.9221 49.4044C56.8198 44.0539 64.6834 40.6747 73.1087 40.1115V43.7723C73.1087 44.3355 73.6704 45.1803 74.232 45.1803V48.278C72.8278 49.1228 70.8619 50.5308 70.8619 51.094V62.0765C70.8619 62.9213 71.4236 63.7661 72.2661 63.7661H72.8278V51.9388C72.8278 51.6572 73.1087 51.3756 73.6703 51.3756C74.232 51.3756 74.5129 51.6572 74.5129 51.9388V63.4845H75.3554H76.1979V51.9388C76.1979 51.6572 76.4788 51.3756 77.0405 51.3756C77.6021 51.3756 77.883 51.6572 77.883 51.9388V63.4845H78.1638C79.0064 63.4845 79.8489 62.6397 79.8489 61.7949V50.8124C79.8489 50.2492 78.1638 48.8412 76.7596 47.9964V44.6171C77.3213 44.3355 77.883 43.7723 77.883 43.2091V39.5483C86.3082 40.1115 93.891 43.4907 99.7887 48.5596L97.5419 50.8124C96.9802 51.3756 96.9802 51.9388 97.2611 52.502L94.1718 55.5996C92.2059 54.7548 89.1167 55.5996 86.5891 58.1341C83.7807 60.9501 82.9381 64.8925 84.6232 66.5821C86.3082 68.2717 90.24 67.4269 93.0484 64.6109C95.576 62.0765 96.4186 58.9789 95.576 57.0076L98.6653 53.91C99.227 54.1916 100.069 54.1916 100.35 53.6284L102.597 51.3756C107.933 57.2892 111.303 64.8925 111.865 73.3406H108.214C107.652 73.3406 106.81 73.9038 106.81 74.467H103.44C102.597 73.3406 101.193 71.3694 100.631 71.3694H89.6784C88.8358 71.3694 87.9933 72.2142 87.9933 73.059V73.3406H99.227C99.5078 73.3406 99.7887 73.6222 99.7887 74.1854C99.7887 74.7486 99.5078 75.0302 99.227 75.0302H87.9933V76.4382H99.227C99.5078 76.4382 99.7887 76.7198 99.7887 77.283C99.7887 77.8462 99.5078 78.1278 99.227 78.1278H87.9933V78.691C87.9933 79.5358 88.8358 80.099 89.6784 80.099H100.631C101.193 80.099 102.597 78.1278 103.44 76.7198H106.529C106.81 77.283 107.371 77.8462 107.933 77.8462H111.584C111.303 86.5759 107.933 94.1792 102.597 100.093ZM67.4918 75.875C67.4918 71.651 70.8619 67.9901 75.3554 67.9901C79.568 67.9901 83.219 71.3694 83.219 75.875C83.219 80.099 79.8489 83.7599 75.3554 83.7599C71.1428 83.7599 67.4918 80.3806 67.4918 75.875ZM119.167 77.8462C118.043 77.8462 117.201 77.0014 117.201 75.875C117.201 74.7486 118.043 73.9038 119.167 73.9038C120.29 73.9038 121.133 74.7486 121.133 75.875C121.133 77.0014 120.29 77.8462 119.167 77.8462Z" fill="#FFD600"/>
</svg>
